<svg xmlns="http://www.w3.org/2000/svg" xmlns:xlink="http://www.w3.org/1999/xlink" width="73.384" height="17.946" viewBox="0 0 19.416 4.748"><defs><linearGradient id="a"><stop offset="0" style="stop-color:#7cadde;stop-opacity:.50455648"/><stop offset="1" style="stop-color:#4169e1;stop-opacity:0"/></linearGradient><linearGradient xlink:href="#a" id="b" x1="55.227" x2="80.081" y1="84.657" y2="84.761" gradientTransform="matrix(.76 0 0 .38926 -41.59 -30.356)" gradientUnits="userSpaceOnUse"/><path id="c" d="M-10.783 30.936h88.212v23.335h-88.212z"/></defs><path d="M5.626 4.683H4.328L3.108 1.77h-.026q.032.387.039.688.013.296.013.499v1.725H2.098V0H3.39l1.213 2.833h.026q-.02-.354-.032-.636-.014-.288-.014-.498V0h1.043zM7.32.997q.65 0 1.01.426t.36 1.227v.557H6.96q0 .36.15.531.151.164.466.164.25 0 .466-.065.216-.066.465-.217v.866q-.236.138-.505.197-.269.065-.583.065-.787 0-1.148-.478-.354-.48-.354-1.384 0-.912.354-1.397.354-.492 1.05-.492m.026.82q-.164 0-.275.144t-.112.498h.748q0-.347-.098-.491-.099-.151-.263-.151m4.382 1.042q0 .348-.078.69-.073.334-.243.609-.17.269-.46.433-.281.157-.701.157-.387 0-.669-.157-.275-.158-.459-.426-.177-.27-.262-.604-.086-.34-.086-.702 0-.524.151-.944.151-.426.479-.675t.86-.25q.662 0 1.062.486.406.485.406 1.383m-1.882.014q0 .99.407.99.223 0 .308-.25.092-.255.092-.754 0-.498-.092-.74-.085-.243-.308-.243-.21 0-.309.242-.098.243-.098.755m3.53.957q.098 0 .216-.033.118-.032.249-.091v.839q-.177.098-.374.15-.19.053-.413.053-.538 0-.774-.308-.23-.315-.23-.95V1.927h-.367v-.564l.46-.275.248-.761h.722v.728h.682v.872h-.682v1.548q0 .354.262.354m3.443-.97q0 .347-.078.688-.073.335-.243.61-.17.269-.46.433-.281.157-.701.157-.387 0-.669-.157-.275-.158-.459-.426-.177-.27-.262-.604-.086-.34-.086-.702 0-.524.151-.944.151-.426.479-.675t.86-.25q.662 0 1.062.486.406.485.406 1.383m-1.882.013q0 .99.407.99.223 0 .308-.25.092-.255.092-.754 0-.498-.092-.74-.085-.243-.308-.243-.21 0-.309.242-.098.243-.098.755m3.457 1.875q-.734 0-1.095-.446-.36-.452-.36-1.416 0-.532.15-.958.157-.433.479-.682.328-.256.846-.256.301 0 .544.072.243.066.46.204l-.283.846q-.321-.217-.65-.217-.216 0-.347.256-.124.256-.124.735 0 .957.498.957.413 0 .813-.321v.905q-.387.321-.93.321" aria-label="Neotoc" style="font-weight:900;font-stretch:extra-condensed;font-size:85.3333px;line-height:1.25;font-family:&quot;Noto Sans&quot;;-inkscape-font-specification:&quot;Noto Sans, Heavy Extra-Condensed&quot;;letter-spacing:-4px;white-space:pre;fill:#fff;stroke-width:.264583"/><rect width="19.035" height="3.057" x=".381" y=".812" ry="0" style="fill:url(#b);fill-opacity:1;stroke:none;stroke-width:.529166;stroke-linecap:round;stroke-linejoin:round;stroke-dasharray:none;stroke-opacity:1"/><path d="M.38.405C.17.405 0 .588 0 .812V3.87c0 .224.17.406.38.407s.381-.182.382-.407V.812C.762.586.59.404.38.405" style="fill:#7cadde;fill-opacity:1;stroke-width:.999998;stroke-linecap:round"/><text xml:space="preserve" style="font-size:23.1887px;line-height:1.25;font-family:&quot;Hack Nerd Font Mono&quot;;-inkscape-font-specification:&quot;Hack Nerd Font Mono, Normal&quot;;white-space:pre;shape-inside:url(#c);display:inline;stroke-width:.98853" transform="matrix(.25847 0 0 .27716 -.082 -.466)"><tspan x="-10.783" y="75.659"><tspan dx="0 13.960774 13.960774" style="fill:red">Neo</tspan></tspan></text></svg>