<svg xmlns="http://www.w3.org/2000/svg" xmlns:xlink="http://www.w3.org/1999/xlink" width="48" height="48"><defs><linearGradient id="a"><stop offset="0" style="stop-color:#7cadde;stop-opacity:.73049885"/><stop offset="1" style="stop-color:#4169e1;stop-opacity:0"/></linearGradient><linearGradient xlink:href="#a" id="b" x1="55.227" x2="63.387" y1="84.657" y2="84.657" gradientTransform="matrix(3.2909 0 0 5.15286 -169.698 -412.21)" gradientUnits="userSpaceOnUse"/></defs><rect width="48" height="48" y="-48" rx="10.263" ry="10.263" style="fill:#171717;fill-opacity:1;stroke:none;stroke-width:1;stroke-linecap:round;stroke-linejoin:round;stroke-dasharray:none;stroke-opacity:1" transform="rotate(90)"/><path d="M38.922 36.813h-7.106L25.14 20.878h-.143q.179 2.117.215 3.768.072 1.615.072 2.728v9.439h-5.671V11.187h7.07l6.64 15.505h.144q-.108-1.938-.18-3.482-.072-1.579-.072-2.727v-9.296h5.707z" aria-label="N" style="font-weight:900;font-stretch:extra-condensed;font-size:85.3333px;line-height:1.25;font-family:&quot;Noto Sans&quot;;-inkscape-font-specification:&quot;Noto Sans, Heavy Extra-Condensed&quot;;letter-spacing:-4px;white-space:pre;fill:#fff;stroke-width:.999998"/><rect width="28.039" height="15.933" x="10.861" y="16.034" ry="0" style="fill:url(#b);fill-opacity:1;stroke:none;stroke-width:1.99998;stroke-linecap:round;stroke-linejoin:round;stroke-dasharray:none;stroke-opacity:1"/><path d="M10.86 14.25a1.79 1.79 0 0 0-1.782 1.784v15.932a1.79 1.79 0 0 0 3.58 0V16.034a1.79 1.79 0 0 0-1.797-1.784" style="fill:#7cadde;fill-opacity:1;stroke-width:3.77954;stroke-linecap:round"/></svg>